<svg width="30" height="30" viewBox="0 0 30 30" fill="none" xmlns="http://www.w3.org/2000/svg">
<path d="M29.4341 13.6638L16.3393 0.565622C15.9768 0.203443 15.4853 0 14.9729 0C14.4605 0 13.969 0.203443 13.6065 0.565622L10.8837 3.28637L14.3337 6.73636C16.1458 6.12431 17.8614 7.85935 17.2393 9.66135L20.5647 12.9868C22.8569 12.1966 24.6616 15.0627 22.9399 16.783C21.166 18.5569 18.2384 16.5908 19.1899 14.2825L16.0862 11.1828V19.3423C17.7803 20.1821 17.5768 22.1448 16.6942 23.0254C16.263 23.4563 15.6783 23.6984 15.0686 23.6984C14.459 23.6984 13.8743 23.4563 13.4431 23.0254C12.2665 21.8468 12.7018 19.8841 14.1964 19.2754V11.0388C12.8036 10.4689 12.5491 8.98033 12.9482 8.02542L9.54712 4.6203L0.5659 13.6029C0.203556 13.9653 0 14.4568 0 14.9693C0 15.4817 0.203556 15.9732 0.5659 16.3357L13.6647 29.4338C14.0271 29.796 14.5185 29.9994 15.0308 29.9994C15.5431 29.9994 16.0345 29.796 16.3969 29.4338L29.4341 16.3966C29.7964 16.0342 30 15.5427 30 15.0302C30 14.5177 29.7964 14.0262 29.4341 13.6638Z" fill="#0E0E24"/>
</svg>
