<svg width="44" height="42" viewBox="0 0 44 42" fill="none" xmlns="http://www.w3.org/2000/svg">
<path d="M14.7169 33.8183C14.7169 33.992 14.5129 34.131 14.2556 34.131C13.9629 34.157 13.7589 34.0181 13.7589 33.8183C13.7589 33.6446 13.9629 33.5057 14.2202 33.5057C14.4863 33.4796 14.7169 33.6186 14.7169 33.8183ZM11.9581 33.4275C11.896 33.6012 12.0734 33.801 12.3395 33.8531C12.5702 33.9399 12.8363 33.8531 12.8895 33.6794C12.9427 33.5057 12.7742 33.3059 12.5081 33.2278C12.2774 33.167 12.0202 33.2538 11.9581 33.4275ZM15.879 33.2799C15.6218 33.3407 15.4444 33.5057 15.471 33.7054C15.4976 33.8791 15.7282 33.992 15.9944 33.9312C16.2516 33.8704 16.429 33.7054 16.4024 33.5317C16.3758 33.3667 16.1363 33.2538 15.879 33.2799ZM21.7161 0C9.4121 0 0 9.14502 0 21.1907C0 30.8221 6.19194 39.0639 15.0363 41.9646C16.1718 42.1644 16.571 41.4783 16.571 40.9138C16.571 40.3753 16.5444 37.4051 16.5444 35.5813C16.5444 35.5813 10.3347 36.884 9.03065 32.9933C9.03065 32.9933 8.01935 30.466 6.56452 29.8147C6.56452 29.8147 4.53306 28.4512 6.70645 28.4772C6.70645 28.4772 8.91532 28.6509 10.1306 30.7179C12.0734 34.0702 15.329 33.1062 16.5976 32.533C16.8016 31.1434 17.3782 30.1794 18.0169 29.6062C13.0581 29.0678 8.05484 28.3643 8.05484 20.0096C8.05484 17.6213 8.72903 16.4228 10.1484 14.8943C9.91774 14.3298 9.16371 12.0023 10.379 8.99738C12.2331 8.43287 16.5 11.3423 16.5 11.3423C18.2742 10.8559 20.1815 10.6041 22.071 10.6041C23.9605 10.6041 25.8677 10.8559 27.6419 11.3423C27.6419 11.3423 31.9089 8.42419 33.7629 8.99738C34.9782 12.011 34.2242 14.3298 33.9935 14.8943C35.4129 16.4315 36.2823 17.63 36.2823 20.0096C36.2823 28.3904 31.0573 29.0591 26.0984 29.6062C26.9145 30.2923 27.6065 31.595 27.6065 33.636C27.6065 36.5627 27.5798 40.1842 27.5798 40.8964C27.5798 41.4609 27.9879 42.147 29.1145 41.9472C37.9855 39.0639 44 30.8221 44 21.1907C44 9.14502 34.0202 0 21.7161 0ZM8.62258 29.9536C8.50726 30.0405 8.53387 30.2402 8.68468 30.4052C8.82661 30.5442 9.03064 30.605 9.14597 30.4921C9.26129 30.4052 9.23468 30.2055 9.08387 30.0405C8.94194 29.9015 8.7379 29.8407 8.62258 29.9536ZM7.66452 29.2502C7.60242 29.3631 7.69113 29.502 7.86855 29.5889C8.01048 29.6757 8.1879 29.6497 8.25 29.5281C8.3121 29.4152 8.22339 29.2762 8.04597 29.1894C7.86855 29.1373 7.72661 29.1633 7.66452 29.2502ZM10.5387 32.3419C10.3968 32.4548 10.45 32.7154 10.654 32.8804C10.8581 33.0801 11.1153 33.1062 11.2306 32.9672C11.346 32.8543 11.2927 32.5938 11.1153 32.4288C10.9202 32.229 10.654 32.203 10.5387 32.3419ZM9.52742 31.0653C9.38548 31.1521 9.38548 31.3779 9.52742 31.5777C9.66935 31.7774 9.90887 31.8643 10.0242 31.7774C10.1661 31.6645 10.1661 31.4387 10.0242 31.239C9.9 31.0392 9.66935 30.9524 9.52742 31.0653Z" fill="#0E0E24"/>
</svg>
