<svg width="26" height="26" viewBox="0 0 26 26" fill="none" xmlns="http://www.w3.org/2000/svg">
<path d="M23.2143 0H2.78571C1.24777 0 0 1.24777 0 2.78571V23.2143C0 24.7522 1.24777 26 2.78571 26H23.2143C24.7522 26 26 24.7522 26 23.2143V2.78571C26 1.24777 24.7522 0 23.2143 0ZM14.1491 20.2777C14.1491 22.808 12.6634 23.9629 10.4987 23.9629C8.54286 23.9629 7.41116 22.9531 6.8308 21.7286L8.82143 20.5272C9.20446 21.2063 9.55268 21.7808 10.3942 21.7808C11.1951 21.7808 11.7058 21.4674 11.7058 20.2429V11.9379H14.1491V20.2777ZM19.9295 23.9629C17.6603 23.9629 16.192 22.8835 15.4781 21.4674L17.4687 20.3183C17.9911 21.1714 18.6759 21.804 19.8772 21.804C20.8871 21.804 21.5371 21.2991 21.5371 20.5969C21.5371 19.7612 20.8754 19.4652 19.7554 18.9719L19.146 18.7107C17.3817 17.9621 16.2152 17.0161 16.2152 15.0254C16.2152 13.1915 17.6138 11.7987 19.7902 11.7987C21.3455 11.7987 22.4598 12.3384 23.2607 13.7545L21.3571 14.9732C20.9393 14.2246 20.4866 13.9286 19.7844 13.9286C19.0705 13.9286 18.6179 14.3812 18.6179 14.9732C18.6179 15.7045 19.0705 16.0004 20.121 16.4589L20.7304 16.7201C22.808 17.608 23.9746 18.5192 23.9746 20.5621C23.9746 22.7558 22.2451 23.9629 19.9295 23.9629Z" fill="#0E0E24"/>
</svg>
