<svg width="173" height="170" viewBox="0 0 173 170" fill="none" xmlns="http://www.w3.org/2000/svg">
<path fill-rule="evenodd" clip-rule="evenodd" d="M86.3622 44.6313L108.957 22.3156L86.3622 0V6.0177C46.4793 6.0177 13.514 35.5984 8.26144 73.9908L22.5948 59.6755L38.5215 75.5823C42.8144 53.1 62.6012 36.1062 86.3622 36.1062V44.6313ZM96.7914 37.224L111.467 22.5664L95.4118 6.53084C134.687 11.014 165.193 44.3236 165.193 84.7493L172.222 84.7493L149.879 107.316L127.535 84.7493H135.066C135.066 61.4597 118.678 41.9929 96.7914 37.224ZM7.53158 84.7493C7.53158 124.979 37.7434 158.162 76.7433 162.901L61.2569 147.434L76.3467 132.363C54.2527 127.75 37.6579 108.185 37.6579 84.7493H44.6874L22.3437 62.1829L0 84.7493H7.53158ZM134.121 94.3358C129.663 116.61 109.975 133.392 86.3622 133.392V125.369L63.7674 147.684L86.3622 170L86.3622 163.481C126.445 163.481 159.541 133.603 164.54 94.9294L149.627 109.823L134.121 94.3358ZM82.7304 24.8645C82.8253 24.8926 82.9211 24.8803 83.0177 24.8277L84.5461 23.9961C84.634 23.9483 84.6919 23.8769 84.7199 23.782C84.7567 23.6823 84.7489 23.5841 84.6963 23.4875L83.3915 21.0895L86.8354 22.4601C86.9168 22.4841 87.0026 22.5058 87.0927 22.525C87.1781 22.5355 87.2867 22.5049 87.4184 22.4332L89.2235 21.451C89.3114 21.4032 89.3673 21.3386 89.3913 21.2572C89.4194 21.1623 89.4119 21.0753 89.3689 20.9962C89.3306 20.926 89.2572 20.8748 89.1487 20.8428L84.6626 19.0317L85.6434 15.1851C85.6642 15.1397 85.6714 15.0902 85.6651 15.0367C85.6587 14.9832 85.646 14.9389 85.6269 14.9038C85.5839 14.8247 85.5173 14.7756 85.4271 14.7563C85.341 14.7235 85.2584 14.7286 85.1793 14.7716L83.4137 15.7323C83.2996 15.7945 83.2237 15.8642 83.1861 15.9416C83.1485 16.019 83.1201 16.1027 83.1008 16.1929L82.3663 19.2053L79.9646 14.7914C79.912 14.6948 79.8339 14.6349 79.7301 14.6116C79.6352 14.5836 79.5438 14.5935 79.456 14.6413L77.9276 15.4729C77.8309 15.5255 77.7686 15.5992 77.7406 15.6942C77.7125 15.7891 77.7248 15.8849 77.7774 15.9815L82.5091 24.6776C82.5617 24.7742 82.6354 24.8365 82.7304 24.8645ZM78.1374 27.654C77.4874 28.0077 76.8475 28.2021 76.2178 28.2374C75.588 28.2727 75.002 28.1476 74.4596 27.8621C73.9212 27.5631 73.4667 27.1045 73.0963 26.4864C73.011 26.3506 72.911 26.1773 72.7963 25.9665C72.6768 25.7469 72.5832 25.5645 72.5155 25.4192C72.193 24.7636 72.0548 24.133 72.1009 23.5273C72.1422 22.9128 72.3487 22.3507 72.7203 21.8411C73.1008 21.3268 73.616 20.8927 74.266 20.5391C74.8721 20.2093 75.4381 20.0151 75.9641 19.9566C76.4853 19.8893 76.9514 19.9089 77.3623 20.0155C77.7732 20.1221 78.1186 20.2757 78.3985 20.4763C78.6825 20.6633 78.8838 20.8555 79.0025 21.0527C79.0591 21.1358 79.0714 21.2315 79.0393 21.34C79.0025 21.4398 78.9402 21.5135 78.8523 21.5613L77.179 22.4718C77.0824 22.5244 76.9958 22.5431 76.9192 22.5278C76.8426 22.5126 76.7584 22.473 76.6667 22.409C76.4131 22.1941 76.1718 22.0749 75.9428 22.0516C75.7226 22.0234 75.4851 22.0786 75.2303 22.2172C74.879 22.4084 74.6688 22.6708 74.5998 23.0043C74.5396 23.333 74.6298 23.7394 74.8703 24.2232C75.0527 24.5794 75.2224 24.8912 75.3793 25.1587C75.6598 25.6323 75.952 25.9287 76.2559 26.0479C76.5687 26.1623 76.9007 26.124 77.2521 25.9328C77.5244 25.7846 77.7085 25.6104 77.8045 25.4102C77.9005 25.21 77.9227 24.9475 77.8711 24.6226C77.8673 24.5108 77.8797 24.4187 77.9085 24.3461C77.9373 24.2735 78.0001 24.2109 78.0967 24.1583L79.77 23.2478C79.8578 23.2 79.956 23.1922 80.0645 23.2242C80.1683 23.2474 80.2396 23.3054 80.2786 23.398C80.3511 23.5521 80.4028 23.7517 80.4336 23.9967C80.4597 24.233 80.4491 24.5063 80.4017 24.8167C80.3543 25.1271 80.247 25.453 80.0798 25.7944C79.9167 26.1223 79.6773 26.4461 79.3618 26.7658C79.0462 27.0855 78.6381 27.3816 78.1374 27.654ZM67.8507 32.9097C68.324 32.8798 68.7978 32.7359 69.2721 32.4778C69.6147 32.2914 69.8894 32.085 70.0964 31.8585C70.3169 31.6361 70.4855 31.402 70.6023 31.1563C70.7191 30.9106 70.7891 30.6733 70.8125 30.4442L71.0634 30.9054C71.116 31.002 71.1898 31.0643 71.2847 31.0924C71.3797 31.1204 71.4754 31.1081 71.5721 31.0556L73.1005 30.2239C73.1883 30.1761 73.2462 30.1048 73.2743 30.0098C73.3111 29.9101 73.3032 29.8119 73.2506 29.7153L71.0712 25.7098C70.8609 25.3234 70.6082 25.0055 70.3132 24.7562C70.0134 24.4981 69.6716 24.3197 69.2878 24.2212C68.9128 24.1178 68.4874 24.1102 68.0117 24.1983C67.5359 24.2864 67.0126 24.4858 66.4416 24.7965C65.897 25.0928 65.4673 25.412 65.1525 25.754C64.8377 26.0961 64.6123 26.4351 64.4763 26.7709C64.3403 27.1068 64.2681 27.4136 64.2599 27.6913C64.2556 27.9554 64.2965 28.1666 64.3825 28.3247C64.4167 28.4085 64.4769 28.4669 64.5631 28.4997C64.6445 28.5237 64.7335 28.5094 64.8301 28.4568L66.3058 27.6539C66.4463 27.5774 66.5251 27.4606 66.542 27.3034C66.539 27.0887 66.5859 26.8924 66.6827 26.7145C66.7882 26.5319 66.9639 26.3736 67.2099 26.2398C67.5612 26.0486 67.8482 26.0006 68.0708 26.0958C68.2933 26.191 68.4906 26.3967 68.6627 26.713L68.7631 26.8974L67.2523 28.0439C66.4808 28.6345 65.9406 29.2529 65.6319 29.899C65.3184 30.5364 65.3313 31.1669 65.6707 31.7905C65.881 32.177 66.1795 32.4642 66.5664 32.6522C66.9533 32.8401 67.3814 32.926 67.8507 32.9097ZM69.6732 30.1079C69.5285 30.3232 69.3288 30.5002 69.0741 30.6388C68.8984 30.7344 68.726 30.794 68.5567 30.8178C68.3827 30.8328 68.2231 30.8115 68.078 30.7539C67.9328 30.6963 67.8195 30.5928 67.7383 30.4435C67.6331 30.2502 67.6346 30.0331 67.7425 29.7922C67.8545 29.5378 68.0978 29.2631 68.4724 28.9682L69.4848 28.1611L69.5852 28.3456C69.7764 28.697 69.875 29.0247 69.8811 29.3288C69.8912 29.6193 69.8219 29.879 69.6732 30.1079ZM63.0945 35.8391C62.6026 36.1068 62.1444 36.248 61.7198 36.2627C61.304 36.2727 60.9213 36.2076 60.5719 36.0676L60.8013 36.4892C60.8539 36.5858 60.8618 36.684 60.825 36.7837C60.797 36.8787 60.739 36.9501 60.6512 36.9979L59.1623 37.808C59.0657 37.8606 58.9699 37.8728 58.875 37.8448C58.78 37.8168 58.7063 37.7544 58.6537 37.6578L53.922 28.9618C53.8694 28.8652 53.8571 28.7694 53.8852 28.6744C53.9132 28.5795 53.9755 28.5057 54.0721 28.4532L55.6796 27.5785C55.7762 27.5259 55.872 27.5137 55.9669 27.5417C56.0619 27.5697 56.1356 27.632 56.1882 27.7287L57.7224 30.5483C57.809 30.2052 57.9721 29.8774 58.2119 29.5648C58.4556 29.2386 58.7927 28.9584 59.2231 28.7242C59.6623 28.4852 60.0894 28.3496 60.5045 28.3173C60.9235 28.2714 61.3257 28.3201 61.711 28.4634C62.0964 28.6066 62.4577 28.8313 62.7949 29.1373C63.1322 29.4433 63.4387 29.8287 63.7143 30.2935C63.8139 30.4556 63.902 30.6069 63.9784 30.7475C64.0501 30.8792 64.1294 31.0353 64.2162 31.2158C64.4663 31.7172 64.6262 32.1994 64.696 32.6624C64.7697 33.1118 64.7621 33.5372 64.6731 33.9385C64.5793 34.3311 64.4038 34.6884 64.1464 35.0106C63.8843 35.324 63.5337 35.6002 63.0945 35.8391ZM61.4223 34.4607C61.721 34.2982 61.9203 34.1101 62.0203 33.8963C62.1203 33.6825 62.148 33.4511 62.1036 33.202C62.068 32.9482 61.9896 32.6892 61.8686 32.4249C61.738 32.143 61.5898 31.8707 61.4241 31.608C61.2679 31.3628 61.0929 31.1563 60.8992 30.9885C60.7142 30.8159 60.5048 30.7136 60.271 30.6814C60.0372 30.6492 59.771 30.7144 59.4723 30.8769C59.2 31.0251 59.0095 31.2084 58.9007 31.427C58.7872 31.6368 58.739 31.8622 58.7564 32.1032C58.7689 32.3355 58.8305 32.5638 58.9412 32.7882C59.0232 32.9599 59.1073 33.1247 59.1933 33.2829C59.2793 33.441 59.3745 33.6055 59.4789 33.7764C59.6167 34.0088 59.7801 34.2044 59.9691 34.3635C60.1581 34.5225 60.3763 34.6201 60.6237 34.6562C60.8662 34.6836 61.1325 34.6185 61.4223 34.4607ZM51.8948 41.677C52.3091 41.6224 52.727 41.4803 53.1486 41.2509C53.6405 40.9833 54.008 40.6752 54.2509 40.3267C54.4939 39.9782 54.6515 39.6192 54.7237 39.2497L54.9531 39.6714C55.0057 39.768 55.0795 39.8303 55.1744 39.8583C55.2694 39.8864 55.3651 39.8741 55.4618 39.8215L56.9506 39.0114C57.0385 38.9636 57.0964 38.8922 57.1244 38.7973C57.1612 38.6976 57.1534 38.5994 57.1008 38.5028L52.3691 29.8067C52.3165 29.7101 52.2384 29.6502 52.1346 29.6269C52.0397 29.5989 51.9483 29.6088 51.8605 29.6566L50.253 30.5312C50.1564 30.5838 50.0941 30.6576 50.066 30.7525C50.038 30.8474 50.0503 30.9432 50.1028 31.0399L51.6371 33.8595C51.2932 33.7506 50.9249 33.7119 50.5322 33.7434C50.1348 33.7662 49.7164 33.897 49.2772 34.136C48.8556 34.3654 48.5141 34.648 48.2528 34.9837C47.9867 35.3106 47.8092 35.6748 47.7202 36.0761C47.6312 36.4775 47.6236 36.9029 47.6973 37.3522C47.7711 37.8016 47.9282 38.2683 48.1687 38.7522C48.2508 38.9239 48.33 39.08 48.4065 39.2205C48.4782 39.3523 48.5662 39.5036 48.6706 39.6745C48.9558 40.1568 49.2694 40.5554 49.6115 40.8702C49.9488 41.1762 50.3101 41.4008 50.6954 41.5441C51.0847 41.6738 51.4845 41.7181 51.8948 41.677ZM53.4974 38.5338C53.3974 38.7476 53.1981 38.9357 52.8994 39.0982C52.6096 39.2559 52.3433 39.3211 52.1008 39.2937C51.867 39.2616 51.6576 39.1592 51.4726 38.9866C51.2876 38.814 51.117 38.6052 50.9609 38.36C50.7863 38.102 50.6382 37.8297 50.5164 37.5431C50.3953 37.2788 50.3126 37.0221 50.2681 36.7731C50.2237 36.524 50.2515 36.2926 50.3515 36.0788C50.4602 35.8603 50.6595 35.6721 50.9494 35.5144C51.2305 35.3615 51.4923 35.2987 51.7349 35.3261C51.9727 35.3447 52.1881 35.4267 52.3811 35.5721C52.5693 35.7088 52.7276 35.8845 52.8558 36.0994C52.9554 36.2615 53.0482 36.4216 53.1343 36.5797C53.2203 36.7378 53.3067 36.9071 53.3935 37.0875C53.5138 37.3295 53.585 37.5754 53.6071 37.8252C53.6379 38.0702 53.6014 38.3064 53.4974 38.5338ZM122.214 40.3046C122.143 40.2203 122.112 40.1288 122.121 40.0302C122.13 39.9316 122.176 39.8469 122.26 39.7762L129.729 33.5091C129.814 33.4384 129.905 33.4073 130.004 33.4159C130.102 33.4246 130.187 33.471 130.258 33.5553L132.957 36.7727C133.491 37.4085 133.854 38.0436 134.047 38.678C134.254 39.3137 134.271 39.9256 134.099 40.5139C133.934 41.1098 133.552 41.6585 132.954 42.1599C132.365 42.6548 131.766 42.9289 131.158 42.9822C130.556 43.0431 129.964 42.9133 129.382 42.5926C128.806 42.2796 128.251 41.8052 127.718 41.1693L126.57 39.8019L124.054 41.9135C123.969 41.9842 123.875 42.0114 123.77 41.9951C123.671 41.9865 123.586 41.9401 123.516 41.8558L122.214 40.3046ZM128.127 38.4369L129.255 39.7813C129.531 40.1107 129.834 40.3005 130.163 40.3506C130.499 40.4083 130.839 40.2926 131.184 40.0033C131.475 39.7591 131.65 39.4691 131.707 39.1334C131.765 38.7978 131.633 38.4384 131.312 38.0554L130.184 36.711L128.127 38.4369ZM128.624 47.9433C128.553 47.8591 128.522 47.7676 128.531 47.669C128.539 47.5704 128.586 47.4857 128.67 47.415L136.254 41.0514C136.338 40.9807 136.43 40.9497 136.528 40.9583C136.627 40.9669 136.711 41.0134 136.782 41.0976L137.92 42.4535C137.991 42.5378 138.022 42.6292 138.013 42.7279C138.004 42.8265 137.958 42.9111 137.874 42.9819L130.29 49.3455C130.206 49.4162 130.114 49.4472 130.016 49.4386C129.917 49.4299 129.832 49.3835 129.762 49.2992L128.624 47.9433ZM131.825 51.5255C131.949 51.9834 132.184 52.4192 132.531 52.8329C132.781 53.1316 133.038 53.36 133.301 53.5178C133.563 53.6898 133.826 53.8086 134.09 53.8743C134.354 53.94 134.601 53.9616 134.83 53.939L134.427 54.2765C134.343 54.3472 134.297 54.4318 134.288 54.5305C134.279 54.6291 134.311 54.7205 134.381 54.8048L135.5 56.1377C135.564 56.2143 135.645 56.2569 135.744 56.2656C135.849 56.2818 135.944 56.2546 136.028 56.1839L139.521 53.2528C139.858 52.97 140.12 52.6592 140.305 52.3206C140.499 51.9755 140.606 51.6051 140.626 51.2094C140.653 50.8214 140.576 50.403 140.395 49.9542C140.215 49.5054 139.915 49.032 139.497 48.5341C139.099 48.0591 138.701 47.7013 138.303 47.4607C137.905 47.22 137.528 47.0664 137.172 46.9997C136.816 46.9331 136.501 46.9233 136.227 46.9703C135.967 47.0186 135.769 47.1005 135.631 47.2162C135.555 47.2664 135.51 47.337 135.495 47.428C135.488 47.5125 135.519 47.5969 135.59 47.6812L136.67 48.9681C136.773 49.0907 136.903 49.1446 137.06 49.13C137.27 49.0845 137.472 49.0915 137.665 49.151C137.865 49.2182 138.055 49.359 138.235 49.5735C138.492 49.88 138.596 50.1517 138.547 50.3887C138.498 50.6258 138.336 50.86 138.06 51.0914L137.899 51.2264L136.476 49.9732C135.744 49.3342 135.03 48.9276 134.336 48.7532C133.649 48.5725 133.033 48.7103 132.49 49.1667C132.152 49.4495 131.93 49.7991 131.823 50.2156C131.715 50.6321 131.716 51.0687 131.825 51.5255ZM134.933 52.7556C134.693 52.6565 134.48 52.4959 134.294 52.2738C134.165 52.1206 134.073 51.9634 134.016 51.8023C133.967 51.6347 133.956 51.4741 133.983 51.3203C134.011 51.1666 134.09 51.0351 134.22 50.9258C134.389 50.7844 134.602 50.7427 134.859 50.8007C135.131 50.86 135.448 51.0439 135.812 51.3525L136.804 52.1846L136.643 52.3196C136.336 52.5767 136.035 52.7384 135.738 52.8047C135.455 52.8723 135.187 52.8559 134.933 52.7556ZM137.07 58.0089C136.999 57.9246 136.968 57.8332 136.977 57.7346C136.985 57.6359 137.032 57.5513 137.116 57.4806L142.517 52.9489C142.601 52.8782 142.692 52.8472 142.791 52.8558C142.89 52.8644 142.974 52.9109 143.045 52.9951L144.154 54.3166C144.224 54.4008 144.255 54.4923 144.247 54.5909C144.238 54.6895 144.192 54.7742 144.108 54.8449L143.671 55.2113C144.075 55.2112 144.493 55.3045 144.924 55.4913C145.355 55.678 145.753 55.9897 146.12 56.4264C146.493 56.8707 146.721 57.3449 146.805 57.8491C146.895 58.3609 146.825 58.8765 146.595 59.3959C146.379 59.9164 145.991 60.4113 145.432 60.8806L142.226 63.5706C142.142 63.6413 142.047 63.6685 141.942 63.6523C141.844 63.6436 141.762 63.601 141.698 63.5244L140.483 62.0766C140.419 62 140.388 61.9085 140.39 61.8023C140.398 61.7036 140.445 61.619 140.529 61.5483L143.666 58.9161C144.026 58.6139 144.228 58.2944 144.272 57.9576C144.329 57.6219 144.217 57.2855 143.934 56.9485C143.671 56.6344 143.359 56.4652 142.999 56.4408C142.653 56.4176 142.3 56.5571 141.94 56.8592L138.803 59.4914C138.719 59.5621 138.624 59.5894 138.519 59.5731C138.421 59.5644 138.339 59.5218 138.275 59.4452L137.07 58.0089ZM93.365 154.763C94.1028 154.673 94.867 154.393 95.6575 153.922C96.4481 153.452 97.0589 152.914 97.4898 152.308C97.9207 151.703 98.146 151.045 98.1657 150.335C98.1803 149.616 97.9721 148.856 97.541 148.053C97.3383 147.674 97.127 147.299 96.9071 146.929C96.6872 146.56 96.4561 146.191 96.2139 145.823C95.7278 145.065 95.1612 144.524 94.5141 144.199C93.8619 143.866 93.1601 143.742 92.4086 143.829C91.6657 143.91 90.9076 144.181 90.1342 144.641C89.3522 145.107 88.7483 145.647 88.3225 146.261C87.8967 146.875 87.6748 147.548 87.6567 148.28C87.6421 148.999 87.8478 149.755 88.2737 150.549C88.4901 150.932 88.7083 151.309 88.9282 151.678C89.1481 152.048 89.3723 152.415 89.6008 152.779C90.1006 153.54 90.6697 154.086 91.3083 154.416C91.9417 154.737 92.6272 154.853 93.365 154.763ZM95.4159 150.994C95.296 151.438 95.0083 151.795 94.5529 152.066C94.0974 152.337 93.6461 152.42 93.1989 152.313C92.7516 152.207 92.3361 151.861 91.9523 151.275C91.7187 150.902 91.5022 150.548 91.3027 150.213C91.1033 149.877 90.9004 149.527 90.6942 149.161C90.4711 148.747 90.354 148.374 90.3432 148.043C90.3273 147.703 90.3995 147.404 90.56 147.146C90.7204 146.888 90.9467 146.671 91.2388 146.498C91.5396 146.319 91.8418 146.22 92.1454 146.202C92.449 146.185 92.742 146.266 93.0243 146.447C93.3101 146.615 93.5818 146.895 93.8394 147.289C94.0714 147.64 94.2871 147.983 94.4865 148.318C94.686 148.653 94.8896 149.015 95.0975 149.403C95.4383 150.015 95.5444 150.545 95.4159 150.994ZM101.251 150.419C101.157 150.475 101.062 150.491 100.966 150.466C100.87 150.442 100.794 150.383 100.737 150.288L97.1317 144.23C97.0755 144.135 97.0595 144.04 97.0839 143.944C97.1082 143.848 97.1677 143.772 97.2622 143.716L98.7445 142.834C98.8391 142.777 98.9343 142.761 99.0303 142.786C99.1262 142.81 99.2023 142.87 99.2586 142.964L99.5501 143.454C99.615 143.055 99.7742 142.657 100.028 142.262C100.281 141.867 100.653 141.523 101.143 141.232C101.641 140.935 102.146 140.786 102.657 140.784C103.177 140.778 103.674 140.93 104.15 141.24C104.629 141.537 105.055 141.999 105.429 142.626L107.569 146.222C107.625 146.317 107.637 146.415 107.604 146.516C107.58 146.612 107.524 146.685 107.438 146.736L105.814 147.703C105.728 147.754 105.633 147.77 105.529 147.751C105.433 147.726 105.357 147.667 105.3 147.572L103.206 144.053C102.966 143.65 102.683 143.399 102.357 143.302C102.035 143.191 101.685 143.248 101.307 143.473C100.955 143.683 100.738 143.963 100.656 144.314C100.577 144.652 100.658 145.023 100.899 145.427L102.993 148.946C103.049 149.04 103.061 149.138 103.028 149.239C103.004 149.335 102.948 149.408 102.863 149.46L101.251 150.419ZM110.981 144.279C111.487 144.21 112.015 144.013 112.565 143.685L113.764 142.972C113.858 142.916 113.918 142.839 113.942 142.744C113.966 142.648 113.951 142.552 113.894 142.458L113.227 141.336C113.171 141.242 113.094 141.182 112.999 141.158C112.903 141.134 112.807 141.15 112.713 141.206L111.72 141.797C111.454 141.955 111.214 141.982 111 141.876C110.786 141.771 110.592 141.572 110.418 141.28L109.052 138.986L110.664 138.027C110.758 137.97 110.818 137.894 110.842 137.798C110.866 137.702 110.85 137.607 110.794 137.513L110.173 136.469C110.116 136.374 110.04 136.315 109.944 136.29C109.848 136.266 109.753 136.282 109.659 136.338L108.047 137.297L106.782 135.17C106.725 135.076 106.649 135.016 106.553 134.992C106.457 134.968 106.362 134.983 106.268 135.04L104.772 135.93C104.686 135.981 104.627 136.057 104.594 136.158C104.57 136.254 104.586 136.349 104.642 136.444L105.908 138.57L104.902 139.169C104.808 139.225 104.744 139.304 104.711 139.405C104.687 139.501 104.703 139.596 104.759 139.691L105.38 140.735C105.437 140.829 105.513 140.889 105.609 140.913C105.713 140.932 105.813 140.914 105.907 140.857L106.913 140.259L108.386 142.734C108.738 143.327 109.135 143.748 109.575 143.999C110.009 144.24 110.478 144.334 110.981 144.279ZM117.022 141.033C116.893 141.109 116.781 141.135 116.685 141.111C116.589 141.087 116.496 141.038 116.405 140.963L110.997 136.1C110.954 136.067 110.92 136.029 110.895 135.987C110.849 135.909 110.84 135.827 110.87 135.739C110.894 135.644 110.945 135.573 111.022 135.526L112.35 134.736C112.462 134.67 112.566 134.649 112.662 134.673C112.766 134.692 112.845 134.727 112.898 134.777L116.175 137.819L115.148 133.455C115.13 133.385 115.133 133.301 115.157 133.205C115.185 133.096 115.259 133.005 115.379 132.934L116.23 132.427C116.35 132.356 116.461 132.336 116.562 132.369C116.667 132.389 116.745 132.423 116.798 132.473L120.145 135.456L119.033 131.125C119.015 131.055 119.018 130.972 119.042 130.876C119.075 130.775 119.147 130.691 119.259 130.625L120.587 129.834C120.664 129.788 120.746 129.78 120.834 129.81C120.925 129.825 120.993 129.872 121.039 129.949C121.065 129.992 121.086 130.038 121.103 130.086L122.799 137.158C122.829 137.268 122.828 137.374 122.795 137.475C122.771 137.571 122.694 137.657 122.565 137.734L121.405 138.424C121.285 138.496 121.172 138.522 121.068 138.503C120.963 138.484 120.87 138.434 120.788 138.355L117.5 135.529L118.416 139.767C118.446 139.877 118.445 139.982 118.412 140.083C118.379 140.184 118.303 140.271 118.182 140.342L117.022 141.033ZM126.008 134.742C126.937 134.934 127.909 134.728 128.923 134.125C129.447 133.813 129.868 133.475 130.187 133.111C130.505 132.746 130.735 132.389 130.875 132.038C131.018 131.673 131.098 131.347 131.112 131.058C131.127 130.77 131.095 130.551 131.017 130.4C130.974 130.309 130.91 130.259 130.825 130.252C130.742 130.231 130.658 130.247 130.572 130.298L128.974 131.249C128.871 131.31 128.801 131.369 128.765 131.426C128.732 131.468 128.703 131.556 128.677 131.688C128.664 131.765 128.643 131.865 128.611 131.988C128.575 132.103 128.514 132.227 128.43 132.358C128.349 132.476 128.222 132.586 128.05 132.689C127.818 132.827 127.585 132.884 127.35 132.861C127.115 132.838 126.898 132.746 126.698 132.586C126.498 132.426 126.319 132.224 126.162 131.98L126.108 131.889L130.233 129.435C130.319 129.383 130.374 129.31 130.399 129.214C130.432 129.113 130.42 129.015 130.364 128.921L130.18 128.611C129.786 127.95 129.311 127.435 128.755 127.068C128.199 126.701 127.582 126.515 126.905 126.511C126.236 126.501 125.523 126.722 124.767 127.172C124.105 127.566 123.602 128.04 123.257 128.594C122.916 129.135 122.749 129.735 122.757 130.393C122.768 131.038 122.963 131.708 123.341 132.402L123.61 132.853C124.28 133.92 125.079 134.55 126.008 134.742ZM127.527 129.317L125.349 130.613L125.334 130.588C125.17 130.313 125.07 130.046 125.033 129.789C124.996 129.532 125.022 129.301 125.11 129.097C125.207 128.888 125.371 128.715 125.603 128.577C125.835 128.439 126.066 128.377 126.296 128.392C126.534 128.401 126.754 128.486 126.954 128.646C127.162 128.801 127.348 129.016 127.512 129.291L127.527 129.317ZM133.728 131.09C133.633 131.147 133.538 131.163 133.442 131.138C133.346 131.114 133.27 131.054 133.214 130.96L129.608 124.902C129.557 124.816 129.544 124.725 129.568 124.629C129.587 124.524 129.644 124.444 129.739 124.388L131.221 123.505C131.316 123.449 131.413 123.437 131.514 123.47C131.61 123.495 131.684 123.55 131.735 123.636L132.042 124.151C132.115 123.747 132.268 123.377 132.499 123.042C132.738 122.701 133.06 122.411 133.464 122.171L134.031 121.833C134.117 121.782 134.208 121.768 134.304 121.793C134.408 121.812 134.489 121.869 134.545 121.963L135.335 123.291C135.386 123.377 135.398 123.475 135.37 123.585C135.346 123.68 135.291 123.754 135.205 123.805L133.955 124.549C133.602 124.759 133.386 125.021 133.306 125.337C133.229 125.638 133.296 125.965 133.506 126.318L135.47 129.617C135.526 129.712 135.537 129.81 135.505 129.911C135.48 130.007 135.421 130.083 135.326 130.139L133.728 131.09ZM140.753 130.104C140.849 130.128 140.944 130.112 141.039 130.056L142.611 129.12C142.706 129.064 142.765 128.988 142.79 128.892C142.814 128.796 142.798 128.7 142.742 128.606L141.039 125.744C141.409 125.897 141.794 125.958 142.196 125.929C142.601 125.885 143.014 125.739 143.435 125.488C143.864 125.232 144.202 124.938 144.446 124.607C144.694 124.261 144.858 123.89 144.936 123.494C145.015 123.099 145.009 122.678 144.918 122.231C144.827 121.785 144.652 121.325 144.393 120.851C144.299 120.674 144.209 120.512 144.122 120.366C144.035 120.22 143.936 120.063 143.825 119.897C143.522 119.426 143.191 119.046 142.834 118.759C142.485 118.466 142.118 118.26 141.732 118.14C141.347 118.02 140.952 117.993 140.549 118.059C140.141 118.115 139.722 118.272 139.292 118.527C138.811 118.814 138.461 119.144 138.242 119.519C138.017 119.885 137.886 120.261 137.847 120.645L137.563 120.168C137.506 120.073 137.426 120.016 137.322 119.997C137.226 119.973 137.135 119.986 137.049 120.037L135.592 120.904C135.498 120.96 135.438 121.036 135.414 121.132C135.389 121.228 135.405 121.323 135.462 121.418L140.525 129.925C140.581 130.02 140.657 130.079 140.753 130.104ZM142.286 123.588C142.195 123.805 142.003 124.001 141.711 124.175C141.444 124.333 141.192 124.408 140.954 124.399C140.71 124.381 140.492 124.307 140.298 124.178C140.1 124.04 139.932 123.866 139.796 123.656C139.685 123.489 139.584 123.329 139.492 123.174C139.4 123.019 139.309 122.858 139.221 122.689C139.091 122.452 139.006 122.212 138.966 121.968C138.926 121.725 138.956 121.491 139.056 121.269C139.151 121.038 139.34 120.838 139.624 120.669C139.916 120.495 140.18 120.42 140.415 120.443C140.649 120.466 140.863 120.56 141.054 120.725C141.254 120.886 141.437 121.085 141.603 121.324C141.778 121.58 141.937 121.847 142.078 122.123C142.209 122.383 142.298 122.639 142.343 122.891C142.397 123.138 142.378 123.37 142.286 123.588ZM12.2141 91.3046C12.1434 91.2203 12.1123 91.1288 12.121 91.0302C12.1296 90.9316 12.1761 90.8469 12.2603 90.7762L19.7292 84.5091C19.8135 84.4384 19.905 84.4073 20.0036 84.4159C20.1022 84.4246 20.1869 84.471 20.2576 84.5553L21.5303 86.0721C21.5946 86.1487 21.6224 86.2363 21.6138 86.3349C21.6116 86.4412 21.5683 86.5297 21.4841 86.6004L15.4629 91.6527L18.3748 95.1229C18.4455 95.2071 18.4727 95.3018 18.4564 95.4068C18.4542 95.5131 18.411 95.6016 18.3267 95.6723L17.1776 96.6365C17.0934 96.7072 16.9987 96.7344 16.8937 96.7181C16.7951 96.7095 16.7104 96.663 16.6397 96.5788L12.2141 91.3046ZM18.3038 98.3287C18.427 98.7866 18.6622 99.2224 19.0093 99.6361C19.26 99.9349 19.5168 100.163 19.7798 100.321C20.0416 100.493 20.3045 100.612 20.5685 100.678C20.8325 100.743 21.079 100.765 21.3081 100.742L20.9059 101.08C20.8217 101.15 20.7752 101.235 20.7666 101.334C20.758 101.432 20.789 101.524 20.8597 101.608L21.9782 102.941C22.0424 103.018 22.1239 103.06 22.2225 103.069C22.3276 103.085 22.4222 103.058 22.5065 102.987L25.9996 100.056C26.3367 99.7732 26.5981 99.4625 26.7839 99.1238C26.9774 98.7787 27.0843 98.4083 27.1047 98.0126C27.1316 97.6246 27.0546 97.2062 26.8738 96.7574C26.693 96.3086 26.3938 95.8352 25.9759 95.3373C25.5774 94.8623 25.1793 94.5045 24.7816 94.2639C24.3838 94.0233 24.0069 93.8696 23.6507 93.803C23.2945 93.7363 22.9795 93.7265 22.7057 93.7735C22.4459 93.8218 22.2471 93.9037 22.1092 94.0194C22.0338 94.0696 21.9886 94.1402 21.9736 94.2312C21.9662 94.3157 21.9978 94.4001 22.0685 94.4844L23.1484 95.7713C23.2513 95.8939 23.3814 95.9479 23.5388 95.9332C23.7487 95.8877 23.9504 95.8947 24.1439 95.9542C24.3439 96.0214 24.5338 96.1623 24.7138 96.3767C24.9709 96.6832 25.0749 96.9549 25.0258 97.1919C24.9767 97.429 24.8142 97.6632 24.5384 97.8946L24.3776 98.0296L22.954 96.7764C22.222 96.1375 21.5088 95.7308 20.8142 95.5565C20.1273 95.3757 19.5119 95.5135 18.968 95.9699C18.631 96.2527 18.4087 96.6024 18.3013 97.0189C18.1939 97.4353 18.1947 97.8719 18.3038 98.3287ZM21.4116 99.5588C21.1719 99.4598 20.9588 99.2991 20.7724 99.077C20.6438 98.9238 20.5511 98.7666 20.4942 98.6055C20.445 98.4379 20.4342 98.2773 20.4619 98.1235C20.4895 97.9698 20.5684 97.8383 20.6987 97.729C20.8672 97.5876 21.0802 97.5459 21.3378 97.6039C21.6094 97.6632 21.9269 97.8471 22.2903 98.1557L23.2823 98.9878L23.1214 99.1228C22.815 99.3799 22.5133 99.5416 22.2165 99.6079C21.9338 99.6755 21.6655 99.6591 21.4116 99.5588ZM23.5483 104.812C23.4776 104.728 23.4465 104.636 23.4552 104.538C23.4638 104.439 23.5102 104.354 23.5945 104.284L28.9951 99.7521C29.0794 99.6814 29.1708 99.6504 29.2694 99.659C29.3681 99.6676 29.4527 99.7141 29.5234 99.7984L30.6322 101.12C30.7029 101.204 30.734 101.295 30.7253 101.394C30.7167 101.493 30.6703 101.577 30.586 101.648L30.1494 102.014C30.554 102.014 30.9717 102.108 31.4025 102.294C31.8334 102.481 32.232 102.793 32.5984 103.23C32.9712 103.674 33.1994 104.148 33.2831 104.652C33.3732 105.164 33.3032 105.68 33.0732 106.199C32.8573 106.72 32.4698 107.215 31.9106 107.684L28.7047 110.374C28.6204 110.445 28.5257 110.472 28.4207 110.455C28.3221 110.447 28.2406 110.404 28.1763 110.328L26.9615 108.88C26.8972 108.803 26.8662 108.712 26.8684 108.605C26.877 108.507 26.9234 108.422 27.0077 108.351L30.1446 105.719C30.5047 105.417 30.7065 105.098 30.7502 104.761C30.808 104.425 30.6954 104.089 30.4126 103.752C30.1491 103.438 29.8374 103.268 29.4775 103.244C29.1317 103.221 28.7788 103.36 28.4188 103.662L25.2818 106.295C25.1975 106.365 25.1029 106.393 24.9978 106.376C24.8992 106.368 24.8178 106.325 24.7535 106.248L23.5483 104.812ZM30.7301 112.974C30.8896 113.585 31.2073 114.173 31.6829 114.74C32.0493 115.177 32.4205 115.518 32.7965 115.764C33.1725 116.01 33.5373 116.18 33.891 116.275C34.2588 116.371 34.5995 116.411 34.9132 116.396C35.2268 116.381 35.4968 116.337 35.7232 116.265C35.9572 116.186 36.1426 116.095 36.2792 115.994C36.3623 115.937 36.4049 115.856 36.4071 115.75C36.417 115.637 36.3897 115.542 36.3255 115.466L35.101 114.006C35.0302 113.922 34.9565 113.873 34.8796 113.859C34.8027 113.845 34.7099 113.851 34.6012 113.877C34.293 113.992 34.0313 114.023 33.816 113.968C33.6007 113.914 33.3934 113.768 33.1941 113.531C32.937 113.224 32.8335 112.906 32.8836 112.577C32.9401 112.256 33.1726 111.91 33.5811 111.542C33.8121 111.335 34.0841 111.106 34.3969 110.857C34.8235 110.525 35.2038 110.356 35.538 110.35C35.8785 110.351 36.1774 110.505 36.4345 110.812C36.6209 111.034 36.7222 111.256 36.7383 111.477C36.7608 111.706 36.6919 111.966 36.5316 112.257C36.4871 112.36 36.465 112.45 36.4653 112.529C36.4656 112.607 36.5011 112.688 36.5718 112.772L37.7963 114.231C37.8605 114.308 37.9452 114.354 38.0503 114.371C38.163 114.381 38.2544 114.35 38.3246 114.278C38.4943 114.122 38.6427 113.887 38.7697 113.571C38.9107 113.257 38.9927 112.888 39.0156 112.464C39.0385 112.04 38.9652 111.58 38.7958 111.082C38.634 110.578 38.3314 110.062 37.8879 109.533C37.4122 108.966 36.8846 108.548 36.3049 108.277C35.7317 108.014 35.1398 107.923 34.5294 108.004C33.9266 108.08 33.3359 108.34 32.7574 108.786C32.6284 108.882 32.4682 109.01 32.2767 109.17C32.0928 109.324 31.9428 109.457 31.8267 109.567C31.2944 110.053 30.9352 110.59 30.749 111.177C30.5768 111.765 30.5705 112.364 30.7301 112.974ZM37.3797 121.529C36.6212 120.625 36.2621 119.699 36.3025 118.752C36.3428 117.804 36.8359 116.914 37.7818 116.081L38.184 115.744C38.8085 115.259 39.438 114.959 40.0727 114.844C40.7215 114.731 41.3401 114.799 41.9287 115.049C42.5313 115.301 43.0801 115.721 43.575 116.311C44.1407 116.985 44.4727 117.653 44.5709 118.315C44.6756 118.984 44.5914 119.623 44.3182 120.23C44.0449 120.838 43.6134 121.39 43.0235 121.884L42.7478 122.116C42.6635 122.187 42.5689 122.214 42.4638 122.198C42.3652 122.189 42.2837 122.146 42.2195 122.07L39.1341 118.393L39.0536 118.46C38.8379 118.654 38.6671 118.863 38.5411 119.086C38.4151 119.309 38.3595 119.539 38.3744 119.774C38.3893 120.01 38.4835 120.231 38.657 120.438C38.7856 120.591 38.9146 120.698 39.0442 120.759C39.1878 120.821 39.3191 120.861 39.4383 120.879C39.5651 120.89 39.6675 120.895 39.7456 120.895C39.8801 120.9 39.971 120.915 40.0185 120.94C40.0801 120.967 40.1494 121.026 40.2265 121.118L41.4221 122.543C41.4864 122.62 41.5148 122.7 41.5074 122.785C41.5141 122.87 41.476 122.942 41.3929 122.998C41.2563 123.1 41.0446 123.166 40.7579 123.198C40.4712 123.23 40.1363 123.204 39.7532 123.121C39.3842 123.039 38.9943 122.87 38.5838 122.614C38.1732 122.358 37.7718 121.996 37.3797 121.529ZM40.2717 117.438L41.9011 119.38L41.9241 119.361C42.1692 119.155 42.3516 118.937 42.4712 118.706C42.5972 118.483 42.6457 118.253 42.6167 118.016C42.5942 117.787 42.4961 117.569 42.3226 117.362C42.149 117.155 41.9514 117.021 41.7297 116.959C41.5144 116.904 41.2827 116.916 41.0345 116.994C40.7864 117.071 40.5398 117.213 40.2946 117.419L40.2717 117.438ZM41.0533 125.51C41.0447 125.609 41.0758 125.701 41.1465 125.785L42.3421 127.21C42.4128 127.294 42.4974 127.34 42.596 127.349C42.7011 127.365 42.7957 127.338 42.88 127.267L45.8216 124.799C46.1357 124.536 46.4477 124.417 46.7576 124.444C47.0817 124.473 47.3755 124.644 47.639 124.958L48.5743 126.073C48.6385 126.149 48.72 126.192 48.8186 126.201C48.9313 126.21 49.026 126.183 49.1026 126.119L50.2861 125.126C50.3704 125.055 50.4136 124.967 50.4158 124.86C50.4244 124.762 50.3966 124.674 50.3323 124.597L49.9081 124.092C49.606 123.732 49.2677 123.461 48.8932 123.279C48.5251 123.105 48.1356 123.014 47.7246 123.006L48.1842 122.621C48.2608 122.557 48.3034 122.475 48.312 122.376C48.3283 122.271 48.3011 122.177 48.2304 122.092L47.1216 120.771C47.0509 120.687 46.9624 120.644 46.8561 120.641C46.7575 120.633 46.6699 120.661 46.5933 120.725L41.1927 125.257C41.1084 125.327 41.062 125.412 41.0533 125.51ZM47.4453 133.525C46.6868 132.621 46.3277 131.695 46.368 130.747C46.4083 129.8 46.9014 128.91 47.8474 128.077L48.2495 127.739C48.874 127.254 49.5036 126.955 50.1382 126.84C50.787 126.726 51.4057 126.794 51.9942 127.045C52.5968 127.296 53.1456 127.717 53.6406 128.307C54.2062 128.981 54.5382 129.649 54.6365 130.31C54.7412 130.98 54.6569 131.618 54.3837 132.226C54.1105 132.834 53.6789 133.385 53.0891 133.88L52.8133 134.112C52.729 134.182 52.6344 134.209 52.5293 134.193C52.4307 134.185 52.3493 134.142 52.285 134.065L49.1996 130.388L49.1192 130.456C48.9034 130.65 48.7326 130.859 48.6066 131.082C48.4806 131.305 48.425 131.534 48.4399 131.77C48.4548 132.005 48.549 132.227 48.7226 132.433C48.8511 132.587 48.9802 132.694 49.1097 132.755C49.2533 132.817 49.3847 132.857 49.5038 132.874C49.6306 132.885 49.7331 132.891 49.8112 132.891C49.9456 132.895 50.0366 132.91 50.084 132.936C50.1456 132.962 50.2149 133.022 50.2921 133.114L51.4876 134.539C51.5519 134.615 51.5804 134.696 51.573 134.78C51.5797 134.866 51.5415 134.937 51.4585 134.994C51.3218 135.095 51.1101 135.162 50.8234 135.194C50.5367 135.226 50.2018 135.2 49.8187 135.117C49.4497 135.035 49.0599 134.866 48.6493 134.61C48.2387 134.354 47.8374 133.992 47.4453 133.525ZM50.3372 129.434L51.9666 131.376L51.9896 131.356C52.2348 131.151 52.4171 130.932 52.5367 130.702C52.6627 130.478 52.7112 130.248 52.6822 130.012C52.6597 129.782 52.5616 129.564 52.3881 129.358C52.2145 129.151 52.0169 129.016 51.7952 128.954C51.5799 128.9 51.3482 128.912 51.1001 128.989C50.8519 129.067 50.6053 129.209 50.3602 129.414L50.3372 129.434ZM51.1189 137.506C51.1102 137.605 51.1413 137.696 51.212 137.78L52.4172 139.217C52.4815 139.293 52.563 139.336 52.6616 139.345C52.7666 139.361 52.8613 139.334 52.9455 139.263L56.0825 136.631C56.4425 136.329 56.7954 136.189 57.1412 136.212C57.5011 136.237 57.8128 136.406 58.0763 136.72C58.3592 137.057 58.4717 137.393 58.4139 137.729C58.3703 138.066 58.1684 138.385 57.8084 138.688L54.6714 141.32C54.5872 141.391 54.5407 141.475 54.5321 141.574C54.5299 141.68 54.5609 141.772 54.6252 141.848L55.8401 143.296C55.9043 143.373 55.9858 143.415 56.0844 143.424C56.1895 143.44 56.2841 143.413 56.3684 143.342L59.5743 140.652C60.1335 140.183 60.521 139.688 60.7369 139.167C60.9669 138.648 61.0369 138.132 60.9468 137.621C60.8631 137.116 60.6349 136.642 60.2621 136.198C59.8957 135.761 59.4971 135.45 59.0662 135.263C58.6354 135.076 58.2177 134.983 57.8131 134.983L58.2497 134.616C58.334 134.546 58.3804 134.461 58.3891 134.362C58.3977 134.264 58.3667 134.172 58.296 134.088L57.1871 132.767C57.1164 132.682 57.0318 132.636 56.9332 132.627C56.8345 132.619 56.7431 132.65 56.6588 132.72L51.2582 137.252C51.174 137.323 51.1275 137.408 51.1189 137.506ZM27.3328 55.1271C27.2361 55.1797 27.1403 55.192 27.0454 55.164C26.9505 55.1359 26.8767 55.0736 26.8241 54.977L22.1641 46.4127C22.1115 46.3161 22.0993 46.2203 22.1273 46.1254C22.1553 46.0304 22.2177 45.9567 22.3143 45.9041L28.362 42.6134C28.4586 42.5608 28.5544 42.5485 28.6493 42.5766C28.753 42.5998 28.8312 42.6598 28.8838 42.7564L29.6079 44.0871C29.6604 44.1838 29.6683 44.2819 29.6315 44.3817C29.6035 44.4766 29.5412 44.5504 29.4445 44.6029L25.3864 46.8111L26.4403 48.7479L30.2349 46.6832C30.3315 46.6306 30.4297 46.6227 30.5294 46.6595C30.6331 46.6828 30.7113 46.7427 30.7639 46.8393L31.4808 48.1569C31.5286 48.2448 31.5365 48.3429 31.5044 48.4514C31.4764 48.5464 31.4141 48.6201 31.3174 48.6727L27.5228 50.7375L29.1431 53.7152C29.1956 53.8118 29.2079 53.9076 29.1799 54.0025C29.1519 54.0975 29.0895 54.1712 28.9929 54.2238L27.3328 55.1271ZM35.1726 49.9392C36.0933 50.1668 37.072 49.9986 38.1084 49.4346C38.6443 49.1431 39.0784 48.8215 39.4107 48.4699C39.7431 48.1183 39.9861 47.7697 40.1397 47.4243C40.2972 47.0653 40.389 46.7422 40.4148 46.4549C40.4406 46.1676 40.4173 45.947 40.3448 45.7928C40.3058 45.7002 40.2436 45.6487 40.1582 45.6382C40.0769 45.6142 39.9923 45.6261 39.9044 45.6739L38.2706 46.5629C38.1652 46.6202 38.0933 46.6764 38.055 46.7314C38.0206 46.7729 37.9878 46.8591 37.9565 46.9899C37.9413 47.0665 37.9156 47.1659 37.8796 47.2879C37.8388 47.4012 37.7736 47.5221 37.6841 47.6505C37.5986 47.7653 37.468 47.8705 37.2923 47.9661C37.0552 48.0951 36.8197 48.1436 36.5859 48.1114C36.3521 48.0793 36.1383 47.9793 35.9445 47.8115C35.7507 47.6437 35.5802 47.4348 35.4328 47.1849L35.3826 47.0926L39.5989 44.7985C39.6867 44.7507 39.7446 44.6793 39.7727 44.5844C39.8095 44.4846 39.8016 44.3865 39.749 44.2898L39.577 43.9736C39.2089 43.2973 38.7542 42.7649 38.2127 42.3764C37.6712 41.988 37.062 41.7787 36.3853 41.7485C35.7173 41.7135 34.9969 41.9063 34.2239 42.3269C33.5475 42.6949 33.0263 43.1492 32.6602 43.69C32.2981 44.2171 32.1084 44.8099 32.091 45.4683C32.0775 46.1132 32.2464 46.7897 32.5976 47.498L32.8486 47.9591C33.4771 49.0516 34.2518 49.7116 35.1726 49.9392ZM36.8996 44.5766L34.6728 45.7882L34.6585 45.7619C34.5056 45.4808 34.4156 45.2109 34.3888 44.9523C34.3619 44.6937 34.3965 44.4643 34.4924 44.2641C34.5972 44.0591 34.7682 43.8921 35.0053 43.763C35.2425 43.634 35.4756 43.5811 35.7046 43.6045C35.9424 43.6231 36.1582 43.7163 36.352 43.8841C36.5545 44.0471 36.7323 44.2692 36.8852 44.5503L36.8996 44.5766ZM45.9316 45.1779C44.8951 45.7419 43.9165 45.91 42.9957 45.6824C42.0749 45.4548 41.3003 44.7948 40.6717 43.7024L40.4208 43.2412C40.0696 42.533 39.9007 41.8564 39.9141 41.2116C39.9315 40.5532 40.1213 39.9604 40.4834 39.4332C40.8494 38.8925 41.3707 38.4381 42.047 38.0701C42.82 37.6495 43.5405 37.4567 44.2084 37.4917C44.8852 37.5219 45.4943 37.7313 46.0358 38.1197C46.5773 38.5081 47.0321 39.0405 47.4001 39.7169L47.5722 40.0331C47.6247 40.1297 47.6326 40.2279 47.5958 40.3276C47.5678 40.4226 47.5098 40.4939 47.422 40.5417L43.2057 42.8359L43.2559 42.9281C43.4033 43.1781 43.5739 43.3869 43.7676 43.5547C43.9614 43.7225 44.1752 43.8225 44.409 43.8547C44.6428 43.8868 44.8783 43.8384 45.1155 43.7094C45.2911 43.6138 45.4217 43.5086 45.5072 43.3937C45.5968 43.2653 45.6619 43.1445 45.7027 43.0312C45.7388 42.9091 45.7644 42.8098 45.7797 42.7332C45.8109 42.6023 45.8437 42.5162 45.8781 42.4747C45.9165 42.4197 45.9883 42.3635 46.0938 42.3061L47.7276 41.4171C47.8154 41.3693 47.9 41.3575 47.9814 41.3815C48.0668 41.3919 48.129 41.4435 48.168 41.5361C48.2404 41.6902 48.2638 41.9109 48.2379 42.1982C48.2121 42.4855 48.1204 42.8086 47.9628 43.1676C47.8092 43.513 47.5662 43.8615 47.2339 44.2131C46.9015 44.5647 46.4674 44.8863 45.9316 45.1779ZM42.496 41.5315L44.7227 40.3199L44.7083 40.2935C44.5554 40.0124 44.3777 39.7904 44.1751 39.6274C43.9813 39.4596 43.7656 39.3664 43.5277 39.3478C43.2987 39.3244 43.0656 39.3772 42.8285 39.5063C42.5913 39.6353 42.4203 39.8023 42.3156 40.0073C42.2196 40.2076 42.185 40.437 42.2119 40.6956C42.2388 40.9542 42.3287 41.224 42.4816 41.5051L42.496 41.5315Z" fill="#FFD156"/>
</svg>
