<svg width="223" height="114" viewBox="0 0 223 114" fill="none" xmlns="http://www.w3.org/2000/svg">
<path fill-rule="evenodd" clip-rule="evenodd" d="M16 17.5V12.5H206V17.5H204C194.17 17.5 190.1 19.7839 188.141 22.3695C187.113 23.7264 186.488 25.3854 186.064 27.3839C185.715 29.0268 185.53 30.7441 185.326 32.6256C185.277 33.0841 185.226 33.5524 185.172 34.0317C184.642 38.7084 183.8 44.2599 179.348 48.4592C175.615 51.9815 169.726 54.2143 160.5 54.8278V101.5H64V99H63.5L63.5 54.9882C51.9347 54.8042 44.899 52.466 40.6516 48.4591C36.2004 44.2599 35.3584 38.7083 34.8284 34.0315C34.7741 33.5522 34.7234 33.0839 34.6738 32.6254C34.4703 30.7439 34.2845 29.0266 33.9362 27.3837C33.5125 25.3852 32.8873 23.7262 31.859 22.3693C29.8997 19.7837 25.83 17.5 16 17.5ZM68.5 54.5V96.5H155.5V54.9987C155.334 54.9996 155.168 55 155 55V54.5L68.5 54.5ZM160.5 49.816C168.904 49.2137 173.394 47.2023 175.917 44.8222C178.919 41.9902 179.671 38.1668 180.203 33.4686C180.25 33.0537 180.296 32.6289 180.343 32.1972C180.547 30.297 180.766 28.2629 181.173 26.3469C181.68 23.9509 182.52 21.5083 184.156 19.3497C184.658 18.6874 185.219 18.0704 185.846 17.5H34.1544C34.7809 18.0704 35.3423 18.6873 35.8441 19.3495C37.4799 21.5081 38.3195 23.9508 38.8275 26.3468C39.2337 28.2628 39.4527 30.2969 39.6573 32.1971C39.7038 32.6288 39.7496 33.0536 39.7966 33.4685C40.3291 38.1667 41.0808 41.9902 44.0827 44.8221C47.023 47.5959 52.6353 49.869 64 49.9945V49.5L160.5 49.5V49.816Z" fill="#E7E7E7"/>
<path d="M30 15C30 23.2843 23.2843 30 15 30C6.71573 30 0 23.2843 0 15C0 6.71573 6.71573 0 15 0C23.2843 0 30 6.71573 30 15Z" fill="#0A5DAF"/>
<path d="M173 51C173 59.2843 166.284 66 158 66C149.716 66 143 59.2843 143 51C143 42.7157 149.716 36 158 36C166.284 36 173 42.7157 173 51Z" fill="#FFD156"/>
<path d="M81 51C81 59.2843 74.2843 66 66 66C57.7157 66 51 59.2843 51 51C51 42.7157 57.7157 36 66 36C74.2843 36 81 42.7157 81 51Z" fill="#FFD156"/>
<path d="M81 99C81 107.284 74.2843 114 66 114C57.7157 114 51 107.284 51 99C51 90.7157 57.7157 84 66 84C74.2843 84 81 90.7157 81 99Z" fill="#E7E7E7"/>
<path d="M173 99C173 107.284 166.284 114 158 114C149.716 114 143 107.284 143 99C143 90.7157 149.716 84 158 84C166.284 84 173 90.7157 173 99Z" fill="#E7E7E7"/>
<path d="M127 51C127 59.2843 120.284 66 112 66C103.716 66 97 59.2843 97 51C97 42.7157 103.716 36 112 36C120.284 36 127 42.7157 127 51Z" fill="#FFD156"/>
<path d="M223 15C223 23.2843 216.284 30 208 30C199.716 30 193 23.2843 193 15C193 6.71573 199.716 0 208 0C216.284 0 223 6.71573 223 15Z" fill="#0A5DAF"/>
</svg>
